#!OML:ASF F:\VICON\USERDATA\INSTALL\Justin_Nancy\Justin_Nancy.ASF
:FULLY-SPECIFIED
:DEGREES
114
root -2.14411 18.1171 4.72739 7.30457 -45.3868 2.29996
lowerback 8.38821 2.00325 3.65013
upperback -1.17401 3.17109 2.35591
thorax -5.87534 1.47187 -0.00756483
lowerneck -18.3215 -6.39554 -11.5351
upperneck 14.9177 -7.09921 7.53874
head 8.33518 -3.29519 3.49918
rclavicle 3.37934e-015 2.06736e-014
rhumerus -40.5536 17.3792 -92.0286
rradius 112.637
rwrist -10.6292
rhand -10.9468 23.6678
rfingers 7.12502
rthumb 15.0717 -5.76356
lclavicle 3.37934e-015 2.06736e-014
lhumerus -60.0984 -7.23687 97.0331
lradius 101.353
lwrist 19.4905
lhand -17.5915 5.40994
lfingers 7.12502
lthumb 8.66458 35.2121
rfemur 5.99811 10.2073 27.7604
rtibia 37.9268
rfoot 12.3224 -5.03502
rtoes 5.11336
lfemur -34.0622 1.1263 -18.5555
ltibia 26.9311
lfoot -2.56065 -1.911
ltoes -10.1178
115
root -2.39394 18.0891 4.98764 7.04631 -45.1131 2.32142
lowerback 8.44258 2.02017 3.45128
upperback -1.04662 3.16987 2.34471
thorax -5.78152 1.48032 0.0918293
lowerneck -18.6767 -6.4788 -11.6125
upperneck 15.1235 -7.19212 7.69599
head 8.485 -3.32091 3.54716
rclavicle -1.98785e-016 -3.81667e-014
rhumerus -40.8986 16.8698 -92.0012
rradius 112.869
rwrist -10.3288
rhand -11.239 23.9635
rfingers 7.12502
rthumb 14.7903 -5.48869
lclavicle -1.98785e-016 -3.81667e-014
lhumerus -59.5773 -7.9542 96.8072
lradius 101.447
lwrist 19.3782
lhand -17.6002 5.27723
lfingers 7.12502
lthumb 8.65614 35.0798
rfemur 5.54116 10.3261 28.082
rtibia 40.7205
rfoot 11.3507 -5.61685
rtoes 4.69469
lfemur -33.9264 1.87322 -19.2858
ltibia 26.7276
lfoot -1.79634 -2.97237
ltoes -11.5846
116
root -2.64072 18.0456 5.24457 6.93421 -44.8054 2.1156
lowerback 8.5573 1.98835 3.35496
upperback -0.902448 3.11937 2.39617
thorax -5.70363 1.46126 0.203865
lowerneck -18.8945 -6.48133 -11.7058
upperneck 15.0725 -7.19737 7.98017
head 8.52118 -3.295 3.65554
rclavicle 5.08889e-014 -4.6118e-014
rhumerus -41.0552 16.3913 -92.0321
rradius 112.841
rwrist -9.67013
rhand -12.0004 24.1488
rfingers 7.12502
rthumb 14.0566 -5.35586
lclavicle 5.08889e-014 -4.6118e-014
lhumerus -58.8462 -8.80047 96.5721
lradius 101.442
lwrist 19.4632
lhand -18.158 5.24087
lfingers 7.12502
lthumb 8.11786 35.0649
rfemur 4.97434 10.404 28.5508
rtibia 43.7458
rfoot 10.4349 -6.63103
rtoes 5.89294
lfemur -33.7142 2.47561 -19.801
ltibia 26.7419
lfoot -1.15757 -4.45918
ltoes -15.3155
117
root -2.88561 17.987 5.49816 6.59014 -44.4245 2.18151
lowerback 8.79305 1.91205 3.02704
upperback -0.782167 2.99152 2.42022
thorax -5.73041 1.40926 0.422093
lowerneck -19.0051 -6.4508 -11.5882
upperneck 15.0067 -7.17407 7.99732
head 8.51163 -3.2724 3.64378
rclavicle -7.59357e-014 6.36111e-015
rhumerus -41.0126 15.7837 -92.1309
rradius 112.602
rwrist -9.15632
rhand -12.1024 24.0247
rfingers 7.12502
rthumb 13.9583 -5.48673
lclavicle -7.59357e-014 6.36111e-015
lhumerus -58.0783 -9.61688 96.3467
lradius 101.518
lwrist 19.4643
lhand -18.5939 5.30506
lfingers 7.12502
lthumb 7.69716 35.145
rfemur 4.31363 10.2224 28.7832
rtibia 46.8865
rfoot 9.83991 -7.73716
rtoes 6.18297
lfemur -33.3459 2.6675 -20.3791
ltibia 26.9888
lfoot -0.658408 -6.01142
ltoes -16.0635
118
root -3.13003 17.92 5.7594 6.32953 -44.0431 2.07861
lowerback 9.01419 1.77456 2.86075
upperback -0.724941 2.80276 2.49709
thorax -5.80942 1.32172 0.614129
lowerneck -19.2103 -6.43832 -11.1907
upperneck 15.2349 -7.13953 7.42132
head 8.58193 -3.28701 3.38377
rclavicle -1.18674e-013 1.74931e-014
rhumerus -41.2564 15.2232 -92.2541
rradius 112.409
rwrist -9.08698
rhand -11.5596 23.8271
rfingers 7.12502
rthumb 14.4814 -5.64752
lclavicle -1.18674e-013 1.74931e-014
lhumerus -57.469 -10.0891 96.0303
lradius 101.769
lwrist 19.6408
lhand -18.4396 5.55057
lfingers 7.12502
lthumb 7.84607 35.385
rfemur 3.47508 9.68506 29.0045
rtibia 50.0577
rfoot 9.68757 -8.35024
rtoes 3.31459
lfemur -32.8942 2.70564 -20.683
ltibia 27.4731
lfoot -0.0465126 -7.5794
ltoes -15.9332
119
root -3.37452 17.8417 6.02176 6.21857 -43.5596 1.82895
lowerback 9.08076 1.58249 2.92503
upperback -0.729363 2.56013 2.55134
thorax -5.85342 1.20046 0.666188
lowerneck -19.0054 -6.41306 -11.1271
upperneck 15.2309 -7.13052 7.34038
head 8.53849 -3.292 3.35056
rclavicle -4.59193e-014 -6.36111e-015
rhumerus -41.7614 14.63 -92.4436
rradius 112.189
rwrist -8.8337
rhand -11.5486 23.8945
rfingers 7.12502
rthumb 14.492 -5.57939
lclavicle -4.59193e-014 -6.36111e-015
lhumerus -56.9909 -10.5069 95.6762
lradius 102.099
lwrist 19.9491
lhand -17.6538 5.92585
lfingers 7.12502
lthumb 8.60441 35.7305
rfemur 2.55553 8.859 29.2106
rtibia 53.1394
rfoot 9.5548 -8.86472
rtoes 0.947096
lfemur -32.4639 2.72236 -20.8542
ltibia 28.074
lfoot 0.949829 -9.22345
ltoes -15.6282
120
root -3.62304 17.7501 6.28309 5.68066 -43.0816 2.10172
lowerback 9.06859 1.44635 2.65057
upperback -0.566842 2.33674 2.44756
thorax -5.68269 1.10064 0.744081
lowerneck -18.47 -6.31351 -11.4485
upperneck 14.7024 -7.0592 7.93992
head 8.29679 -3.22746 3.62527
rclavicle -6.32135e-014 -3.33958e-014
rhumerus -42.1393 13.8247 -92.6627
rradius 111.815
rwrist -8.06745
rhand -12.4451 24.4045
rfingers 7.12502
rthumb 13.6281 -5.12942
lclavicle -6.32135e-014 -3.33958e-014
lhumerus -56.101 -11.3098 95.2709
lradius 102.398
lwrist 20.3349
lhand -17.5657 6.23399
lfingers 7.12502
lthumb 8.68945 36.0351
rfemur 1.78525 7.991 28.9694
rtibia 56.2088
rfoot 9.2145 -9.23655
rtoes 0.0118836
lfemur -32.0147 2.87982 -21.5002
ltibia 29.0731
lfoot 1.50419 -11.4127
ltoes -13.8462
121
root -3.88641 17.674 6.62328 4.29796 -43.705 2.87782
lowerback 8.79307 1.77958 2.45235
upperback 0.167739 2.69553 1.98468
thorax -4.74069 1.29026 0.343774
lowerneck -18.9398 -6.3904 -11.1794
upperneck 14.5354 -7.227 8.21085
head 8.33953 -3.25251 3.64253
rclavicle -5.98342e-014 4.6118e-014
rhumerus -42.1081 12.5835 -92.7312
rradius 111.461
rwrist -7.65867
rhand -13.6614 24.5678
rfingers 7.12502
rthumb 12.4556 -5.04104
lclavicle -5.98342e-014 4.6118e-014
lhumerus -54.5147 -12.8119 94.7532
lradius 102.526
lwrist 20.6171
lhand -17.7066 6.03757
lfingers 7.12502
lthumb 8.55352 35.8443
rfemur 1.62094 7.78335 27.7278
rtibia 59.1302
rfoot 8.96633 -8.48963
rtoes -2.06591
lfemur -30.7384 1.90554 -22.2809
ltibia 30.5342
lfoot 0.267383 -11.3285
ltoes -9.01997
122
root -4.12341 17.5773 6.83012 3.93657 -43.102 2.79044
lowerback 9.62436 2.00533 2.16195
upperback 0.586708 2.96368 1.65661
thorax -4.76283 1.4255 0.108874
lowerneck -20.897 -6.84788 -9.7518
upperneck 15.1009 -8.00885 7.79266
head 8.86821 -3.53038 3.12118
rclavicle 4.4329e-014 1.59028e-014
rhumerus -41.5509 10.4613 -92.6706
rradius 111.083
rwrist -7.50003
rhand -14.5091 23.9787
rfingers 7.12502
rthumb 11.6381 -5.67804
lclavicle 4.4329e-014 1.59028e-014
lhumerus -52.3257 -15.1462 93.9318
lradius 102.581
lwrist 20.7152
lhand -17.7853 5.76419
lfingers 7.12502
lthumb 8.47757 35.574
rfemur 0.460054 6.74332 27.9413
rtibia 62.2332
rfoot 8.75932 -8.90278
rtoes -2.37448
lfemur -30.567 2.27695 -22.4198
ltibia 32.4584
lfoot -0.976491 -13.1352
ltoes -2.27207
